<?xml version="1.0" encoding="UTF-8" standalone="no"?>
<!DOCTYPE svg PUBLIC "-//W3C//DTD SVG 1.1//EN" "http://www.w3.org/Graphics/SVG/1.1/DTD/svg11.dtd">
<svg width="100%" height="100%" viewBox="0 0 906 352" version="1.1" xmlns="http://www.w3.org/2000/svg" xmlns:xlink="http://www.w3.org/1999/xlink" xml:space="preserve" xmlns:serif="http://www.serif.com/" style="fill-rule:evenodd;clip-rule:evenodd;stroke-linejoin:round;stroke-miterlimit:2;">
    <g transform="matrix(1,0,0,1,-413.285138,-341.9025)">
        <g>
            <g transform="matrix(3.229829,0,0,3.229829,-1489.021316,44.364593)">
                <path d="M621.879,194.362C621.111,195.898 619.143,197.098 615.975,197.962C612.807,198.826 609.399,199.306 605.751,199.402C602.103,199.498 598.647,199.162 595.383,198.394C592.119,197.626 590.007,196.474 589.047,194.938C588.087,193.402 597.772,190.926 601.072,190.123C603.59,189.511 606.308,189.606 608.848,190.123C612.316,190.83 622.647,192.826 621.879,194.362ZM654.711,155.482C655.863,157.594 656.103,160.282 655.431,163.546C654.759,166.81 653.607,169.978 651.975,173.05C650.343,176.122 648.327,178.762 645.927,180.97C643.527,183.178 613.168,190.027 613.168,187.531C613.168,185.035 614.32,183.019 616.624,181.483C618.928,179.947 653.559,153.37 654.711,155.482ZM639.447,107.674C641.751,107.482 644.007,108.394 646.215,110.41C648.423,112.426 650.295,114.922 651.831,117.898C653.367,120.874 654.471,124.042 655.143,127.402C655.815,130.762 655.863,133.594 655.287,135.898C654.711,138.202 623.404,171.582 616.336,177.451C614.485,178.988 612.123,173.399 612.88,171.115C616.732,159.486 637.143,107.866 639.447,107.674ZM589.047,97.594C589.815,95.866 591.735,94.522 594.807,93.562C597.879,92.602 601.239,92.122 604.887,92.122C608.535,92.122 611.943,92.554 615.111,93.418C618.279,94.282 620.343,95.674 621.303,97.594C622.263,99.514 611.932,156.462 608.56,168.235C607.872,170.635 601.736,170.641 601.072,168.235C597.82,156.462 588.279,99.322 589.047,97.594Z" style="fill:rgb(203,255,77);fill-rule:nonzero;"/>
            </g>
            <g id="Logo" transform="matrix(1,0,0,1,0,79.82575)">
                <g transform="matrix(0.666085,0,0,0.666085,243.24768,108.789347)">
                    <g transform="matrix(288,0,0,288,1631.601375,514.974661)">
                    </g>
                    <text x="653.553px" y="514.975px" style="font-family:'PlusJakartaSans-Medium', 'Plus Jakarta Sans';font-weight:500;font-size:288px;fill:rgb(203,255,77);">G<tspan x="870.705px 953.361px 1126.449px 1364.337px 1464.561px " y="514.975px 514.975px 514.975px 514.975px 514.975px ">rowth</tspan></text>
                </g>
                <g transform="matrix(0.666085,0,0,0.666085,253.027368,268.440848)">
                    <g transform="matrix(288,0,0,288,1486.449375,514.974661)">
                    </g>
                    <text x="653.553px" y="514.975px" style="font-family:'PlusJakartaSans-Medium', 'Plus Jakarta Sans';font-weight:500;font-size:288px;fill:rgb(203,255,77);">M<tspan x="874.449px 1014.705px 1163.601px 1259.505px 1309.617px " y="514.975px 514.975px 514.975px 514.975px 514.975px ">antle</tspan></text>
                </g>
            </g>
        </g>
    </g>
</svg>
